# xmcd CD database file
#
# Track frame offsets:
#	150
#	13231
#	27495
#	40805
#	54505
#	67412
#	80995
#	94466
#	108076
#	122131
#	135629
#	147644
#
# Disc length: 2138 seconds
#
# Revision: 1
# Processed by: cddbd v1.5PL3 Copyright (c) Steve Scherf et al.
# Submitted via: jetAudio 5
#
DISCID=ba08580c
DTITLE=Hank Williams Sr. - Luke The Drifter
DYEAR=1900
DGENRE=
TTITLE0=A Picture From Life's Other Side
TTITLE1=Men With Broken Hearts
TTITLE2=Help Me Understand
TTITLE3=Too Many Parties And Too Many Pals
TTITLE4=Why Don't You Make Up Your Mind
TTITLE5=I've Been Down That Road Before
TTITLE6=Be Careful Of Stones That You Throw
TTITLE7=I Dreamed About Mama Last Night
TTITLE8=The Funeral
TTITLE9=Beyond The Sunset
TTITLE10=Just Waitin'
TTITLE11=Everything's Okay
EXTD=
EXTT0=
EXTT1=
EXTT2=
EXTT3=
EXTT4=
EXTT5=
EXTT6=
EXTT7=
EXTT8=
EXTT9=
EXTT10=
EXTT11=
PLAYORDER=
